PathFileType	4	(X/Y/Z)	./resultDataOpenSim/trcMotMarkerGrf/sub06/qtm-03-04.trc
DataRate	CameraRate	NumFrames	NumMarkers	Units	OrigDataRate	OrigDataStartFrame	OrigNumFrames
250.000000	250.000000	6	24	m	250.000000	1	490
Frame#	Time	L.Toe.Tip			R.Toe.Tip			L.Ankle.Lat			R.Ankle.Lat			L.Ankle.Med			R.Ankle.Med			L.Heel			R.Heel			L.Knee.Lat			R.Knee.Lat			L.Knee.Med			R.Knee.Med			L.Thigh.Upper			R.Thigh.Upper			L.ASIS			R.ASIS			V.Sacral			L.Acromium			R.Acromium			C7			L.Elbow			R.Elbow			L.Wrist.Lat			R.Wrist.Lat
		X1	Y1	Z1	X2	Y2	Z2	X3	Y3	Z3	X4	Y4	Z4	X5	Y5	Z5	X6	Y6	Z6	X7	Y7	Z7	X8	Y8	Z8	X9	Y9	Z9	X10	Y10	Z10	X11	Y11	Z11	X12	Y12	Z12	X13	Y13	Z13	X14	Y14	Z14	X15	Y15	Z15	X16	Y16	Z16	X17	Y17	Z17	X18	Y18	Z18	X19	Y19	Z19	X20	Y20	Z20	X21	Y21	Z21	X22	Y22	Z22	X23	Y23	Z23	X24	Y24	Z24

1	0	-1.5913965	0.031309158	-0.13005551	-0.99892903	0.10207447	0.095183946	-1.7083609	0.080560572	-0.1438574	-1.1277955	0.078070074	0.10089274	-1.6996453	0.093123025	-0.060052968	-1.113107	0.10721143	0.017190946	NaN	NaN	NaN	-1.1634596	0.035659487	0.028114821	-1.5415418	0.41490555	-0.15653337	-1.2323195	0.45271189	0.10671277	-1.5506565	0.41567205	-0.036528497	-1.2427897	0.4313001	-0.022520542	-1.4369383	0.79015248	-0.21327796	-1.4239809	0.77796733	0.13568286	-1.3523373	0.82585477	-0.17043431	-1.3341572	0.82597157	0.075300404	-1.5211001	0.91402124	-0.031834284	-1.3508059	1.3100405	-0.21699233	-1.3640914	1.2949523	0.14586355	-1.4296138	1.3487598	-0.037352234	-1.3752835	0.99112849	-0.29627954	-1.4970703	1.0038029	0.18996403	-1.1729007	0.84459684	-0.27765305	-1.3947899	0.78489649	0.21573784
2	0.004	-1.5915668	0.031306242	-0.12996031	-0.98591457	0.10600796	0.0957431	-1.7081017	0.081290781	-0.14403407	-1.1139192	0.079123085	0.10198782	-1.6985504	0.09374174	-0.0603569	-1.1001775	0.10829843	0.018003933	NaN	NaN	NaN	-1.1493193	0.035384586	0.029529995	-1.5380482	0.41422253	-0.1565298	-1.2255998	0.45127703	0.1067702	-1.5479085	0.41457336	-0.036431932	-1.2361929	0.42927194	-0.023070212	-1.432553	0.78900537	-0.21223957	-1.4155425	0.77604645	0.13677103	-1.3464916	0.82450433	-0.17027272	-1.3272486	0.82415363	0.075302055	-1.5151339	0.91246702	-0.03120093	-1.3447852	1.3084053	-0.21650476	-1.3583206	1.2931759	0.14639344	-1.4236925	1.3472118	-0.036963687	-1.3674612	0.98930114	-0.29589329	-1.4916547	1.0022342	0.19024387	-1.1640184	0.84449682	-0.27641053	-1.3904174	0.78293821	0.21641687
3	0.008	-1.5918377	0.031271536	-0.12975083	-0.97320465	0.10974865	0.09621928	-1.7078599	0.082038636	-0.14420358	-1.1005246	0.080083448	0.10290454	-1.6974952	0.094419798	-0.060636273	-1.0875384	0.10933305	0.018702236	NaN	NaN	NaN	-1.1354352	0.035195923	0.030719612	-1.5344165	0.41349897	-0.15654145	-1.2189107	0.44992014	0.10683597	-1.5445944	0.41352906	-0.036441147	-1.2295392	0.42732253	-0.023561379	-1.427942	0.78775078	-0.21157747	-1.4071931	0.77417328	0.13774082	-1.3407332	0.82307844	-0.17023388	-1.3203596	0.82237549	0.075297975	-1.509087	0.91091589	-0.030371928	-1.3387221	1.306768	-0.21598198	-1.352551	1.2914098	0.14694861	-1.4177624	1.3456577	-0.036599954	-1.3596664	0.98750418	-0.29553809	-1.4862405	1.0007878	0.19052737	-1.1551752	0.84440114	-0.27514981	-1.3860059	0.78097526	0.21713249
4	0.012	-1.5921084	0.031216254	-0.12951644	-0.96096846	0.11317841	0.096541035	-1.7075821	0.082816195	-0.14437134	-1.0878785	0.080872492	0.10355264	-1.6965667	0.095183043	-0.060876502	-1.0754124	0.11025694	0.019234651	NaN	NaN	NaN	-1.1219933	0.035113458	0.031554446	-1.5306491	0.41272539	-0.15657924	-1.2122004	0.44868095	0.1069224	-1.5407838	0.41253234	-0.036536802	-1.2227935	0.42549929	-0.023944982	-1.4230161	0.78637926	-0.21124409	-1.3993689	0.77230698	0.13838023	-1.3351134	0.82153965	-0.17040993	-1.3134751	0.82063512	0.075283119	-1.502888	0.90936688	-0.029195172	-1.3326056	1.3051306	-0.21540883	-1.3467724	1.2896747	0.14754176	-1.4117897	1.344105	-0.036208986	-1.3518942	0.98574235	-0.29517585	-1.4808051	0.99944183	0.19083358	-1.1463796	0.84430493	-0.27386124	-1.3815145	0.77901756	0.21789419
5	0.016	-1.5922526	0.031167266	-0.12938126	-0.94926825	0.1162269	0.096661199	-1.7071115	0.083633256	-0.1445552	-1.0760589	0.081443189	0.10392181	-1.6958309	0.096006614	-0.061082159	-1.0639194	0.11103022	0.019598186	NaN	NaN	NaN	-1.109166	0.035085862	0.032016678	-1.5268277	0.41192814	-0.15664266	-1.2054042	0.44755482	0.10703538	-1.5368458	0.41154228	-0.036641293	-1.2159592	0.42382945	-0.024183962	-1.4178293	0.78493636	-0.21092353	-1.3923122	0.77039812	0.13863652	-1.3295796	0.81992269	-0.17075395	-1.3065902	0.81891652	0.075255351	-1.4964804	0.90781362	-0.02758956	-1.3264639	1.3035108	-0.21480079	-1.3409786	1.287989	0.14817449	-1.4057474	1.3425754	-0.035709973	-1.3441413	0.98401349	-0.29474812	-1.4753381	0.9980683	0.19119815	-1.1376421	0.84419228	-0.2725591	-1.3769297	0.77708913	0.21869537
6	0.02	-1.592275	0.031133562	-0.12934944	-0.93816897	0.11876696	0.09663701	-1.7062818	0.084504755	-0.14477681	-1.0650262	0.08178475	0.10405167	-1.6952675	0.096853591	-0.061270145	-1.0530772	0.11163638	0.019805058	NaN	NaN	NaN	-1.097115	0.035040091	0.032154615	-1.5229673	0.41113297	-0.1567242	-1.1985016	0.44650949	0.1071738	-1.5328508	0.41054269	-0.03673121	-1.2090424	0.42233064	-0.02427177	-1.4124716	0.78345167	-0.21042074	-1.3857526	0.76847319	0.13868026	-1.3239801	0.81829691	-0.17110049	-1.299712	0.81721818	0.075215286	-1.4898614	0.90625498	-0.025642076	-1.3203176	1.3019312	-0.21418001	-1.33516	1.2863481	0.14884313	-1.3996305	1.3410836	-0.035088196	-1.3364142	0.9823215	-0.29424856	-1.4698489	0.9965926	0.19164898	-1.1289699	0.84404727	-0.27126294	-1.3722589	0.77521058	0.21953294
